<?xml version="1.0" standalone="no"?>
<!DOCTYPE svg PUBLIC "-//W3C//DTD SVG 20010904//EN"
 "http://www.w3.org/TR/2001/REC-SVG-20010904/DTD/svg10.dtd">
<svg version="1.0" xmlns="http://www.w3.org/2000/svg"
 width="162.000000pt" height="162.000000pt" viewBox="0 0 162.000000 162.000000"
 preserveAspectRatio="xMidYMid meet">
<metadata>
Created by potrace 1.11, written by Peter Selinger 2001-2013
</metadata>
<g transform="translate(0.000000,162.000000) scale(0.100000,-0.100000)"
fill="#000000" stroke="none">
<path d="M905 1598 c-73 -26 -162 -115 -187 -186 -18 -52 -15 -178 6 -226 9
-22 15 -40 14 -42 -2 -1 -23 -5 -48 -9 -25 -4 -58 -12 -75 -19 -16 -7 -41 -18
-55 -23 -54 -22 -151 -105 -186 -158 -64 -95 -72 -136 -74 -341 0 -100 4 -203
10 -230 39 -174 198 -312 401 -349 40 -8 174 -8 208 -1 173 37 302 129 368
264 l38 76 0 210 c0 116 -3 224 -7 240 -25 100 -127 225 -219 268 -26 13 -48
25 -48 28 -1 3 30 19 67 37 77 36 154 107 150 137 -6 40 -117 77 -211 70 l-44
-4 9 53 c12 64 3 163 -17 194 -17 25 -49 29 -100 11z"/>
</g>
</svg>
