<?xml version="1.0" standalone="no"?>
<!DOCTYPE svg PUBLIC "-//W3C//DTD SVG 20010904//EN"
 "http://www.w3.org/TR/2001/REC-SVG-20010904/DTD/svg10.dtd">
<svg version="1.0" xmlns="http://www.w3.org/2000/svg"
 width="780.000000pt" height="780.000000pt" viewBox="0 0 780.000000 780.000000"
 preserveAspectRatio="xMidYMid meet">
<metadata>
Created by potrace 1.11, written by Peter Selinger 2001-2013
</metadata>
<g transform="translate(0.000000,780.000000) scale(0.100000,-0.100000)"
fill="#000000" stroke="none">
<path d="M3597 7794 c-2 -2 -30 -7 -63 -10 -110 -10 -153 -18 -260 -44 -43
-11 -86 -22 -95 -24 -163 -41 -393 -143 -573 -254 -77 -47 -199 -133 -216
-152 -3 -3 -34 -30 -70 -60 -279 -237 -513 -577 -636 -925 -14 -38 -28 -77
-31 -85 -3 -8 -7 -20 -8 -26 -2 -6 -10 -36 -18 -65 -9 -30 -18 -65 -21 -79 -3
-14 -7 -36 -11 -50 -3 -14 -10 -54 -15 -90 -6 -36 -13 -76 -16 -90 -12 -61
-16 -304 -18 -946 -1 -683 -1 -689 -21 -686 -40 7 -129 58 -175 102 -47 45
-97 110 -84 110 3 0 1 6 -5 13 -6 8 -12 22 -14 33 -1 10 -5 24 -9 29 -12 19
-5 176 9 219 25 76 47 121 87 176 22 30 42 57 46 60 30 24 71 157 69 225 -3
121 -83 250 -191 306 -47 25 -45 24 -103 35 -114 20 -237 -17 -316 -95 -47
-47 -152 -195 -181 -256 -16 -33 -33 -67 -38 -75 -8 -14 -22 -48 -24 -60 -1
-3 -4 -9 -7 -15 -11 -18 -41 -128 -59 -215 -13 -62 -17 -123 -15 -225 3 -162
6 -182 41 -301 14 -49 29 -97 31 -106 3 -10 9 -18 14 -18 5 0 9 -6 9 -14 0 -8
15 -42 34 -76 172 -319 518 -546 891 -586 53 -6 57 -8 61 -27 3 -12 13 -59 19
-87 2 -8 4 -15 5 -15 1 0 3 -8 5 -17 4 -23 51 -168 66 -204 7 -16 13 -35 15
-42 5 -25 89 -197 137 -281 43 -76 137 -219 162 -247 5 -7 26 -31 45 -55 65
-81 198 -219 283 -292 12 -10 31 -26 42 -35 11 -10 36 -28 55 -42 19 -13 37
-27 40 -30 4 -6 124 -86 175 -117 11 -7 40 -23 65 -35 25 -13 47 -26 50 -29 3
-4 15 -9 26 -13 12 -4 24 -14 26 -24 11 -40 -4 -771 -16 -790 -3 -6 -2 -13 4
-17 6 -4 7 -11 4 -17 -4 -6 -7 -27 -8 -46 l-1 -36 -50 -2 c-283 -11 -503 -278
-460 -559 30 -196 190 -364 383 -404 49 -10 380 -8 597 3 220 12 405 176 431
382 2 22 6 145 9 274 2 129 7 340 9 469 3 141 1 242 -5 253 -10 19 -18 267 -9
273 3 2 49 5 101 6 l94 2 0 -124 c0 -68 -5 -140 -11 -159 -7 -21 -9 -91 -7
-175 2 -77 5 -279 8 -450 6 -391 8 -403 55 -500 51 -105 157 -195 270 -230 63
-19 212 -27 505 -27 193 0 217 1 260 16 178 63 289 189 332 376 4 19 5 161 0
180 -14 63 -45 136 -76 180 -88 125 -239 209 -383 214 -20 1 -40 5 -45 10 -4
4 -9 47 -9 94 -4 232 -8 308 -15 317 -4 6 -6 123 -5 260 l1 250 30 15 c138 70
309 184 434 289 65 55 235 222 277 273 80 96 187 250 246 353 47 82 144 295
153 335 2 8 10 34 19 58 8 23 13 42 9 42 -3 0 -1 6 5 13 8 10 13 26 28 92 1 6
7 30 13 55 12 47 14 57 25 130 7 40 19 57 116 155 133 136 312 320 630 646
135 138 289 296 343 351 53 54 97 103 97 108 0 6 5 10 11 10 6 0 27 35 46 78
32 67 37 88 39 164 5 134 -28 225 -117 323 -102 110 -276 162 -422 125 -125
-32 -150 -54 -604 -523 -46 -46 -89 -89 -96 -95 -10 -9 -13 60 -14 356 -1 202
-2 381 -2 397 0 17 -1 37 -1 45 0 28 -20 203 -25 210 -2 3 -6 23 -9 45 -11 72
-17 99 -52 217 -53 183 -124 350 -206 486 -21 34 -38 67 -38 72 0 6 -4 10 -8
10 -5 0 -13 10 -19 23 -26 55 -178 242 -283 347 -110 111 -269 245 -337 285
-18 11 -33 23 -33 27 0 4 -5 8 -11 8 -6 0 -23 8 -37 19 -55 39 -206 118 -335
175 -70 32 -247 90 -307 102 -14 3 -50 11 -80 19 -77 20 -260 46 -271 40 -5
-4 -9 -2 -9 2 0 8 -375 15 -383 7z"/>
</g>
</svg>
